<svg width="20" height="20" viewBox="0 0 20 20" fill="none" xmlns="http://www.w3.org/2000/svg">
<path d="M3 4C1.9 4 1 4.9 1 6C1 7.1 1.9 8 3 8C4.1 8 5 7.11 5 6C5 4.89 4.11 4 3 4ZM10 2C8.9 2 8 2.89 8 4C8 5.11 8.9 6 10 6C11.1 6 12 5.11 12 4C12 2.89 11.11 2 10 2ZM17 0C15.9 0 15 0.9 15 2C15 3.1 15.9 4 17 4C18.1 4 19 3.11 19 2C19 0.89 18.11 0 17 0ZM1.5 9C0.67 9 0 9.67 0 10.5V15H1V20H5V15H6V10.5C6 9.67 5.33 9 4.5 9H1.5ZM8.5 7C7.67 7 7 7.67 7 8.5V13H8V18H12V13H13V8.5C13 7.67 12.33 7 11.5 7H8.5ZM15.5 5C14.67 5 14 5.67 14 6.5V11H15V16H19V11H20V6.5C20 5.67 19.33 5 18.5 5H15.5Z" fill="#2B2B2B"/>
</svg>
